<?xml version="1.0" standalone="no"?>
<!DOCTYPE svg PUBLIC "-//W3C//DTD SVG 20010904//EN"
 "http://www.w3.org/TR/2001/REC-SVG-20010904/DTD/svg10.dtd">
<svg version="1.0" xmlns="http://www.w3.org/2000/svg"
 width="259.000000pt" height="194.000000pt" viewBox="0 0 259.000000 194.000000"
 preserveAspectRatio="xMidYMid meet">

<g transform="translate(0.000000,194.000000) scale(0.100000,-0.100000)"
fill="#000000" stroke="none">
<path d="M2000 1294 c-58 -33 -130 -109 -130 -137 0 -5 24 -5 54 -2 65 8 119
-7 154 -44 24 -25 25 -25 19 -3 -3 12 -1 22 4 22 5 0 9 33 8 73 -2 58 -6 76
-23 94 -26 28 -31 28 -86 -3z"/>
<path d="M1656 1214 c-9 -8 -16 -20 -16 -26 0 -6 1 -9 3 -7 1 2 11 14 21 27
22 25 16 30 -8 6z"/>
<path d="M1720 1210 c0 -5 6 -10 14 -10 8 0 18 -5 22 -12 5 -8 2 -9 -11 -4
-21 8 -55 -1 -55 -15 0 -6 10 -8 23 -4 19 6 19 4 -7 -17 -26 -22 -27 -26 -15
-46 8 -12 21 -25 30 -27 9 -3 29 -23 44 -45 30 -44 89 -65 106 -39 6 11 13 8
34 -11 l26 -24 -6 44 c-11 78 -85 204 -85 146 0 -9 -4 -16 -10 -16 -5 0 -10 7
-10 16 0 13 -3 14 -14 4 -8 -6 -12 -18 -9 -26 7 -18 -7 -18 -34 1 -20 14 -23
14 -33 -5 -16 -29 -32 -25 -18 5 6 14 17 25 24 25 7 0 15 6 17 13 3 7 6 5 6
-5 1 -24 13 -23 29 3 8 12 9 18 2 14 -6 -4 -20 5 -31 19 -21 27 -39 34 -39 16z
m-17 -85 c-3 -9 -8 -14 -10 -11 -3 3 -2 9 2 15 9 16 15 13 8 -4z m51 -39 c-4
-11 -2 -16 4 -12 5 3 12 -1 16 -9 9 -25 -10 -25 -24 0 -7 13 -17 22 -22 19 -4
-3 -3 6 4 21 8 18 14 22 20 13 4 -7 5 -21 2 -32z"/>
<path d="M1695 1200 c-4 -6 -10 -8 -15 -5 -14 9 -23 -36 -10 -49 9 -8 11 -6 8
9 -2 11 5 27 17 37 11 10 17 17 13 18 -4 0 -10 -5 -13 -10z"/>
<path d="M1125 1065 c-43 -15 -72 -44 -81 -81 -15 -61 22 -100 124 -129 54
-16 76 -40 51 -56 -19 -13 -78 -3 -99 16 -13 12 -28 14 -59 9 -22 -4 -41 -11
-41 -16 0 -43 76 -87 149 -88 101 0 171 47 171 116 0 62 -31 92 -110 109 -19
4 -45 14 -58 22 -19 11 -21 17 -11 29 16 20 52 18 81 -5 21 -17 30 -18 66 -9
48 12 51 20 18 53 -43 43 -128 56 -201 30z"/>
<path d="M690 1063 c-8 -3 -25 -15 -37 -26 l-23 -20 0 21 c0 20 -5 22 -49 22
-39 0 -51 -4 -55 -17 -14 -49 -48 -284 -42 -298 4 -12 17 -15 53 -13 l48 3 12
65 c7 36 17 89 23 118 13 59 36 79 65 58 18 -13 18 -18 -2 -130 l-20 -117 56
3 56 3 12 55 c6 30 17 83 24 118 13 71 39 97 67 68 14 -14 14 -25 -1 -118 -10
-57 -17 -108 -17 -114 0 -7 21 -11 58 -10 l57 1 17 95 c34 192 21 240 -66 240
-33 0 -52 -7 -75 -25 l-30 -26 -25 26 c-24 24 -68 32 -106 18z"/>
<path d="M1541 1044 c-30 -25 -31 -25 -31 -5 0 19 -6 21 -55 21 -37 0 -55 -4
-55 -12 0 -7 -11 -78 -25 -157 -19 -113 -22 -147 -12 -153 15 -10 78 -10 93 0
6 4 17 41 24 82 18 114 29 149 50 160 51 27 61 -18 35 -160 -7 -41 -11 -78 -9
-81 2 -4 28 -7 58 -8 63 0 55 -15 81 154 17 111 14 148 -18 170 -35 24 -101
19 -136 -11z"/>
</g>
</svg>
